FFmpeg version SVN-r25716, Copyright (c) 2000-2010 the FFmpeg developers  built on Nov 10 2010 12:23:18 with gcc 4.1.2 20080704 (Red Hat 4.1.2-48)  configuration: --enable-libmp3lame --enable-shared --disable-mmx --arch=x86_64  libavutil     50.33. 0 / 50.33. 0  libavcore      0.12. 1 /  0.12. 1  libavcodec    52.94. 4 / 52.94. 4  libavformat   52.84. 0 / 52.84. 0  libavdevice   52. 2. 2 / 52. 2. 2  libavfilter    1.59. 0 /  1.59. 0  libswscale     0.12. 0 /  0.12. 0Input #0, avi, from '/RAID10/data/converted_video_files/43419.avi':  Metadata:    encoder         : MEncoder SVN-r30881(20100311-gcc4.3.3)  Duration: 00:00:26.96, start: 0.000000, bitrate: 2607 kb/s    Stream #0.0: Video: mpeg4, yuv420p, 854x480 [PAR 1:1 DAR 427:240], PAR 491520:491477 DAR 2048:1151, 29.97 tbr, 29.97 tbn, 29.97 tbc    Stream #0.1: Audio: mp3, 44100 Hz, 2 channels, s16, 128 kb/s[buffer @ 0x1cbbd4e0] w:854 h:480 pixfmt:yuv420pOutput #0, flv, to '/RAID10/data/converted_video_files/43419.flv':  Metadata:    encoder         : Lavf52.84.0    Stream #0.0: Video: flv, yuv420p, 854x480 [PAR 1:1 DAR 427:240], q=2-31, 600 kb/s, 1k tbn, 24 tbc    Stream #0.1: Audio: libmp3lame, 22050 Hz, 2 channels, s16, 96 kb/sStream mapping:  Stream #0.0 -> #0.0  Stream #0.1 -> #0.1Press [q] to stop encodingframe=   43 fps=  0 q=22.5 size=     588kB time=1.83 bitrate=2627.7kbits/s dup=0 drop=10    frame=   74 fps= 68 q=22.3 size=     700kB time=3.12 bitrate=1836.4kbits/s dup=0 drop=18    frame=  118 fps= 75 q=21.8 size=     830kB time=4.96 bitrate=1371.8kbits/s dup=0 drop=29    frame=  150 fps= 73 q=17.2 size=     949kB time=6.29 bitrate=1235.5kbits/s dup=0 drop=37    frame=  183 fps= 71 q=20.3 size=    1072kB time=7.67 bitrate=1145.1kbits/s dup=0 drop=45    frame=  208 fps= 67 q=18.9 size=    1158kB time=8.71 bitrate=1089.5kbits/s dup=0 drop=51    frame=  235 fps= 65 q=23.8 size=    1249kB time=9.83 bitrate=1040.5kbits/s dup=0 drop=58    frame=  286 fps= 70 q=19.0 size=    1422kB time=11.96 bitrate= 973.8kbits/s dup=0 drop=71    frame=  336 fps= 73 q=20.2 size=    1597kB time=14.04 bitrate= 931.7kbits/s dup=0 drop=83    frame=  387 fps= 76 q=21.5 size=    1802kB time=16.17 bitrate= 913.0kbits/s dup=0 drop=96    frame=  435 fps= 77 q=27.9 size=    1977kB time=18.17 bitrate= 891.6kbits/s dup=0 drop=108    frame=  474 fps= 78 q=19.2 size=    2098kB time=19.79 bitrate= 868.4kbits/s dup=0 drop=118    frame=  525 fps= 79 q=28.1 size=    2287kB time=21.92 bitrate= 854.8kbits/s dup=0 drop=130    frame=  575 fps= 81 q=21.3 size=    2456kB time=24.00 bitrate= 838.3kbits/s dup=0 drop=143    frame=  625 fps= 82 q=15.3 size=    2665kB time=26.08 bitrate= 837.1kbits/s dup=0 drop=155    frame=  647 fps= 82 q=23.7 Lsize=    2714kB time=26.91 bitrate= 826.5kbits/s dup=0 drop=161    video:2373kB audio:315kB global headers:0kB muxing overhead 0.986416%